# xmcd
#
# Track frame offsets: 
#        150
#        44628
#        138073
#
# Disc length: 2176 seconds
#
# Revision: 1
# Processed by: cddbd v1.5.2PL0 Copyright (c) Steve Scherf et al.
# Submitted via: ExactAudioCopy v0.99pb5
#
DISCID=22087e03
DTITLE=String Cheese Incident - OTR 06-19-2002 St. Louis, MO [CD2]
DYEAR=2002
DGENRE=Bluegrass
TTITLE0=On the Road to Bannaroo
TTITLE1=Howard
TTITLE2=Whiskey Before Breakfast
EXTD=
EXTT0=
EXTT1=
EXTT2=
PLAYORDER=
